# xmcd
#
# Track frame offsets:
#	150
#	13868
#	34872
#	49250
#	63507
#	82711
#	96264
#	107664
#	120751
#	143144
#	166362
#	178883
#	202734
#
# Disc length: 2937 seconds
#
# Revision: 2
# Processed by: cddbd v1.5.2PL0 Copyright (c) Steve Scherf et al.
# Submitted via: EasyCDDAExtractor 15.3.0.1
#
DISCID=a40b770d
DTITLE=Hans Theesink - Hard Road Blues
DYEAR=1994
DGENRE=Blues
TTITLE0=Big Bill's Guitar
TTITLE1=Hard Road Blues
TTITLE2=You Make Me Feel So Good
TTITLE3=Prison Blues
TTITLE4=Two Trains
TTITLE5=Blind Willie
TTITLE6=Sugar Babe
TTITLE7=Minnibelle
TTITLE8=Vicksburg Is My Home
TTITLE9=One Kind Favour
TTITLE10=Shotgun Blues
TTITLE11=Cypress Grove
TTITLE12=Sitting On Top Of The World
EXTD=
EXTT0=
EXTT1=
EXTT2=
EXTT3=
EXTT4=
EXTT5=
EXTT6=
EXTT7=
EXTT8=
EXTT9=
EXTT10=
EXTT11=
EXTT12=
PLAYORDER=
